<?xml version="1.0" encoding="UTF-8" standalone="no"?>
<!-- Created with Inkscape (http://www.inkscape.org/) -->

<svg
   width="100mm"
   height="100mm"
   viewBox="0 0 99.999997 100"
   version="1.1"
   id="svg1"
   sodipodi:docname="4.svg"
   inkscape:version="1.3.2 (091e20e, 2023-11-25, custom)"
   inkscape:export-filename="tile left.svg"
   inkscape:export-xdpi="96"
   inkscape:export-ydpi="96"
   xmlns:inkscape="http://www.inkscape.org/namespaces/inkscape"
   xmlns:sodipodi="http://sodipodi.sourceforge.net/DTD/sodipodi-0.dtd"
   xmlns="http://www.w3.org/2000/svg"
   xmlns:svg="http://www.w3.org/2000/svg">
  <sodipodi:namedview
     id="namedview1"
     pagecolor="#ffffff"
     bordercolor="#000000"
     borderopacity="0.25"
     inkscape:showpageshadow="2"
     inkscape:pageopacity="0.0"
     inkscape:pagecheckerboard="0"
     inkscape:deskcolor="#d1d1d1"
     inkscape:document-units="mm"
     inkscape:zoom="0.1429937"
     inkscape:cx="244.76603"
     inkscape:cy="-314.69918"
     inkscape:window-width="1280"
     inkscape:window-height="650"
     inkscape:window-x="1074"
     inkscape:window-y="262"
     inkscape:window-maximized="1"
     inkscape:current-layer="svg1" />
  <defs
     id="defs1" />
  <path
     id="path1-2"
     style="display:inline;fill:#967969;fill-opacity:1;fill-rule:evenodd;stroke-width:1.90476;stroke-linejoin:round;paint-order:markers fill stroke"
     d="m 100,0 v 17.756514 c -15.652761,0 -14.665876,-8.282009 -26.427311,-8.282009 -4.799611,0 -9.151208,4.343438 -13.944753,8.282009 -3.972021,3.263581 -8.246561,6.2499 -13.339648,6.2499 -2.63675,0 -4.099573,-2.944062 -5.455791,-6.2499 -1.767828,-4.309143 -3.349851,-9.2490948 -7.067853,-9.2490948 -2.815903,0 -4.24853,4.9034378 -6.220853,9.2490948 -1.568775,3.4565 -3.478555,6.560448 -6.701448,6.560448 -5.857453,0 -6.972952,-6.560448 -20.842319190491,-6.560448 V 0 Z"
     sodipodi:nodetypes="ccsssssssccc"
     inkscape:label="path2" />
  <path
     style="display:inline;fill:none;fill-rule:evenodd;stroke:#212121;stroke-width:1.90476;stroke-linejoin:round;stroke-opacity:1;paint-order:markers fill stroke"
     d="m 0,17.756514 c 13.869353,0 14.984876,6.560448 20.842319,6.560448 3.222894,0 5.132673,-3.103948 6.701448,-6.560448 1.972318,-4.345657 3.40495,-9.2490948 6.220853,-9.2490948 3.717998,0 5.300025,4.9399568 7.067848,9.2490948 1.356223,3.305833 2.819051,6.2499 5.455796,6.2499 5.093078,0 9.367632,-2.986324 13.339649,-6.2499 4.793539,-3.938571 9.145146,-8.282009 13.944752,-8.282009 11.761426,0 10.774564,8.282009 26.427311,8.282009"
     id="path4" />
  <rect
     style="fill:none;fill-rule:evenodd;stroke-width:0.125992;stroke-linecap:round;stroke-linejoin:round;paint-order:fill markers stroke"
     id="rect1"
     width="100"
     height="100"
     x="1.0164898e-16"
     y="1.708123e-07" />
</svg>
