<?xml version="1.0" encoding="UTF-8" standalone="no"?>
<!-- Created with Inkscape (http://www.inkscape.org/) -->

<svg
   width="100mm"
   height="99.999992mm"
   viewBox="0 0 99.999997 99.999994"
   version="1.1"
   id="svg1"
   sodipodi:docname="11.svg"
   inkscape:version="1.3.2 (091e20e, 2023-11-25, custom)"
   inkscape:export-filename="tile up.svg"
   inkscape:export-xdpi="96"
   inkscape:export-ydpi="96"
   xmlns:inkscape="http://www.inkscape.org/namespaces/inkscape"
   xmlns:sodipodi="http://sodipodi.sourceforge.net/DTD/sodipodi-0.dtd"
   xmlns="http://www.w3.org/2000/svg"
   xmlns:svg="http://www.w3.org/2000/svg">
  <sodipodi:namedview
     id="namedview1"
     pagecolor="#ffffff"
     bordercolor="#000000"
     borderopacity="0.25"
     inkscape:showpageshadow="2"
     inkscape:pageopacity="0.0"
     inkscape:pagecheckerboard="0"
     inkscape:deskcolor="#d1d1d1"
     inkscape:document-units="mm"
     inkscape:zoom="0.40444726"
     inkscape:cx="271.97613"
     inkscape:cy="323.89884"
     inkscape:window-width="1280"
     inkscape:window-height="650"
     inkscape:window-x="1074"
     inkscape:window-y="262"
     inkscape:window-maximized="1"
     inkscape:current-layer="svg1" />
  <defs
     id="defs1" />
  <path
     id="path1-2"
     style="display:inline;fill:#967969;fill-opacity:1;fill-rule:evenodd;stroke-width:1.90476;stroke-linejoin:round;paint-order:markers fill stroke"
     inkscape:label="path2"
     d="m 0,0 v 17.756506 c 15.652732,0 14.665901,-8.2820057 26.427315,-8.2820057 4.799603,0 9.151219,4.3434437 13.944755,8.2820057 3.972015,3.263573 8.246574,6.249892 13.339652,6.249892 2.636742,0 4.099579,-2.944062 5.455797,-6.249892 1.767819,-4.309132 3.349861,-9.2490929 7.067854,-9.2490929 2.815904,0 4.248541,4.9034459 6.220854,9.2490929 1.568776,3.456492 3.478556,6.560443 6.70145,6.560443 2.834446,-0.05268 11.367823,-7.59845 11.367823,2.110366 0,4.799607 -4.343441,9.151215 -8.282006,13.944755 -3.263574,3.972018 -6.249892,8.246569 -6.249892,13.339652 0,2.636746 2.94406,4.099579 6.249892,5.455797 4.309136,1.767823 9.249096,3.349856 9.249096,7.067854 0,2.815904 -4.903446,4.248536 -9.249096,6.220854 -3.456493,1.568776 -6.560444,3.478556 -6.560444,6.70145 0,5.857444 6.560444,6.972968 6.560444,20.842323 H 100 V 17.756506 0 H 82.243494 Z"
     sodipodi:nodetypes="ccssssssccsssssscccccc" />
  <path
     style="display:inline;fill:none;fill-opacity:1;fill-rule:evenodd;stroke:#212121;stroke-width:1.90476;stroke-linejoin:round;stroke-opacity:1;paint-order:markers fill stroke"
     d="m 0,17.756506 c 15.652732,0 14.665901,-8.2820057 26.427315,-8.2820057 4.799603,0 9.151219,4.3434437 13.944755,8.2820057 3.972015,3.263573 8.246574,6.249892 13.339652,6.249892 2.636742,0 4.099579,-2.944062 5.455797,-6.249892 1.767819,-4.309132 3.349861,-9.2490929 7.067854,-9.2490929 2.815904,0 4.248541,4.9034459 6.220854,9.2490929 1.568776,3.456492 3.478556,6.560443 6.70145,6.560443 2.834446,-0.05268 11.367823,-7.59845 11.367823,2.110366 0,4.799607 -4.343441,9.151215 -8.282006,13.944755 -3.263574,3.972018 -6.249892,8.246569 -6.249892,13.339652 0,2.636746 2.94406,4.099579 6.249892,5.455797 4.309136,1.767823 9.249096,3.349856 9.249096,7.067854 0,2.815904 -4.903446,4.248536 -9.249096,6.220854 -3.456493,1.568776 -6.560444,3.478556 -6.560444,6.70145 0,5.857444 6.560444,6.972968 6.560444,20.842323"
     id="path5" />
</svg>
