<?xml version="1.0" encoding="UTF-8" standalone="no"?>
<!-- Created with Inkscape (http://www.inkscape.org/) -->

<svg
   width="100mm"
   height="99.999977mm"
   viewBox="0 0 100 99.999977"
   version="1.1"
   id="svg1"
   sodipodi:docname="15.svg"
   inkscape:version="1.3.2 (091e20e, 2023-11-25, custom)"
   inkscape:export-filename="bootom-left inner.svg"
   inkscape:export-xdpi="96"
   inkscape:export-ydpi="96"
   xml:space="preserve"
   xmlns:inkscape="http://www.inkscape.org/namespaces/inkscape"
   xmlns:sodipodi="http://sodipodi.sourceforge.net/DTD/sodipodi-0.dtd"
   xmlns="http://www.w3.org/2000/svg"
   xmlns:svg="http://www.w3.org/2000/svg"><sodipodi:namedview
     id="namedview1"
     pagecolor="#ffffff"
     bordercolor="#000000"
     borderopacity="0.25"
     inkscape:showpageshadow="2"
     inkscape:pageopacity="0.0"
     inkscape:pagecheckerboard="0"
     inkscape:deskcolor="#d1d1d1"
     inkscape:document-units="mm"
     inkscape:zoom="0.2859874"
     inkscape:cx="384.63233"
     inkscape:cy="304.20921"
     inkscape:window-width="1280"
     inkscape:window-height="650"
     inkscape:window-x="1074"
     inkscape:window-y="262"
     inkscape:window-maximized="1"
     inkscape:current-layer="svg1" /><defs
     id="defs1" /><path
     id="path1-2"
     style="display:inline;fill:#967969;fill-opacity:1;fill-rule:evenodd;stroke-width:1.90476;stroke-linejoin:round;paint-order:markers fill stroke"
     inkscape:label="path2"
     d="m 82.24349,0 c 0,13.869359 -6.560446,14.984882 -6.560446,20.842333 0,2.851233 1.853533,3.474623 3.474623,3.474623 5.857451,0 6.97297,-6.560446 20.842333,-6.560446 V 0 Z"
     sodipodi:nodetypes="cssccc" /><path
     style="display:inline;fill:none;fill-opacity:1;fill-rule:evenodd;stroke:#212121;stroke-width:1.90476;stroke-linejoin:round;stroke-opacity:1;paint-order:markers fill stroke"
     d="m 82.24349,0 c 0,13.869359 -6.560446,14.984882 -6.560446,20.842333 0,2.851233 1.853533,3.474623 3.474623,3.474623 5.857451,0 6.97297,-6.560446 20.842333,-6.560446"
     id="path8" /><path
     id="path1"
     style="display:inline;fill:#967969;fill-opacity:1;fill-rule:evenodd;stroke-width:1.90476;stroke-linejoin:round;paint-order:markers fill stroke"
     inkscape:label="path2"
     d="m 17.75651,99.999976 c 0,-13.869358 6.560446,-14.984882 6.560446,-20.842333 0,-2.851233 -1.853533,-3.474623 -3.474623,-3.474623 -5.857451,0 -6.97297,6.560446 -20.842333,6.560446 v 17.75651 z"
     sodipodi:nodetypes="cssccc" /><path
     style="display:inline;fill:none;fill-opacity:1;fill-rule:evenodd;stroke:#212121;stroke-width:1.90476;stroke-linejoin:round;stroke-opacity:1;paint-order:markers fill stroke"
     d="m 17.75651,99.999976 c 0,-13.869358 6.560446,-14.984882 6.560446,-20.842333 0,-2.851233 -1.853533,-3.474623 -3.474623,-3.474623 -5.857451,0 -6.97297,6.560446 -20.842333,6.560446"
     id="path2" /></svg>
