<?xml version="1.0" encoding="UTF-8" standalone="no"?>
<!-- Created with Inkscape (http://www.inkscape.org/) -->

<svg
   width="100mm"
   height="100mm"
   viewBox="0 0 100 100"
   version="1.1"
   id="svg1"
   sodipodi:docname="2.svg"
   inkscape:version="1.3.2 (091e20e, 2023-11-25, custom)"
   inkscape:export-filename="tile right.svg"
   inkscape:export-xdpi="96"
   inkscape:export-ydpi="96"
   xmlns:inkscape="http://www.inkscape.org/namespaces/inkscape"
   xmlns:sodipodi="http://sodipodi.sourceforge.net/DTD/sodipodi-0.dtd"
   xmlns="http://www.w3.org/2000/svg"
   xmlns:svg="http://www.w3.org/2000/svg">
  <sodipodi:namedview
     id="namedview1"
     pagecolor="#ffffff"
     bordercolor="#000000"
     borderopacity="0.25"
     inkscape:showpageshadow="2"
     inkscape:pageopacity="0.0"
     inkscape:pagecheckerboard="0"
     inkscape:deskcolor="#d1d1d1"
     inkscape:document-units="mm"
     inkscape:zoom="0.40444726"
     inkscape:cx="273.21238"
     inkscape:cy="286.81119"
     inkscape:window-width="1280"
     inkscape:window-height="650"
     inkscape:window-x="1074"
     inkscape:window-y="262"
     inkscape:window-maximized="1"
     inkscape:current-layer="svg1" />
  <defs
     id="defs1" />
  <path
     id="path1-2"
     style="display:inline;fill:#967969;fill-opacity:1;fill-rule:evenodd;stroke-width:1.90476;stroke-linejoin:round;paint-order:markers fill stroke"
     d="M 100,0 H 82.243485 c 0,15.652761 8.28201,14.665876 8.28201,26.427311 0,4.799611 -4.343438,9.151208 -8.28201,13.944753 -3.26358,3.972021 -6.2499,8.246561 -6.2499,13.339648 0,2.63675 2.944062,4.099573 6.2499,5.455791 4.309143,1.767828 9.249096,3.349851 9.249096,7.067853 0,2.815903 -4.903438,4.24853 -9.249096,6.220853 -3.4565,1.568775 -6.560447,3.478555 -6.560447,6.701448 0,5.857453 6.560447,6.972952 6.560447,20.842319 H 100 Z"
     sodipodi:nodetypes="ccsssssssccc"
     inkscape:label="path2" />
  <path
     style="display:inline;fill:none;fill-rule:evenodd;stroke:#212121;stroke-width:1.90476;stroke-linejoin:round;stroke-opacity:1;paint-order:markers fill stroke"
     d="m 82.243485,100 c 0,-13.869353 -6.560447,-14.984876 -6.560447,-20.842319 0,-3.222894 3.103947,-5.132673 6.560447,-6.701448 4.345658,-1.972318 9.249096,-3.40495 9.249096,-6.220853 0,-3.717998 -4.939957,-5.300025 -9.249096,-7.067848 -3.305833,-1.356223 -6.2499,-2.819051 -6.2499,-5.455796 0,-5.093078 2.986324,-9.367632 6.2499,-13.339649 3.938572,-4.793539 8.28201,-9.145146 8.28201,-13.944752 0,-11.761426 -8.28201,-10.774564 -8.28201,-26.427311190492"
     id="path4" />
  <rect
     style="fill:none;fill-rule:evenodd;stroke-width:0.125992;stroke-linecap:round;stroke-linejoin:round;paint-order:fill markers stroke"
     id="rect1"
     width="100"
     height="100"
     x="0"
     y="0" />
</svg>
