<?xml version="1.0" encoding="UTF-8" standalone="no"?>
<!-- Created with Inkscape (http://www.inkscape.org/) -->

<svg
   width="100mm"
   height="100mm"
   viewBox="0 0 99.999997 99.999999"
   version="1.1"
   id="svg1"
   sodipodi:docname="3.svg"
   inkscape:version="1.3.2 (091e20e, 2023-11-25, custom)"
   inkscape:export-filename="bottom-left."
   inkscape:export-xdpi="96"
   inkscape:export-ydpi="96"
   xml:space="preserve"
   xmlns:inkscape="http://www.inkscape.org/namespaces/inkscape"
   xmlns:sodipodi="http://sodipodi.sourceforge.net/DTD/sodipodi-0.dtd"
   xmlns="http://www.w3.org/2000/svg"
   xmlns:svg="http://www.w3.org/2000/svg"><sodipodi:namedview
     id="namedview1"
     pagecolor="#ffffff"
     bordercolor="#000000"
     borderopacity="0.25"
     inkscape:showpageshadow="2"
     inkscape:pageopacity="0.0"
     inkscape:pagecheckerboard="0"
     inkscape:deskcolor="#d1d1d1"
     inkscape:document-units="mm"
     inkscape:zoom="0.20222363"
     inkscape:cx="257.14107"
     inkscape:cy="182.96576"
     inkscape:window-width="1280"
     inkscape:window-height="650"
     inkscape:window-x="1074"
     inkscape:window-y="262"
     inkscape:window-maximized="1"
     inkscape:current-layer="svg1" /><defs
     id="defs1" /><path
     id="path1-2"
     style="display:inline;fill:#967969;fill-opacity:1;fill-rule:evenodd;stroke-width:1.90476;stroke-linejoin:round;paint-order:markers fill stroke"
     inkscape:label="path2"
     d="M 0,100 H 17.756506 100 V 82.243494 c -15.65275,0 -14.665888,8.282006 -26.427316,8.282006 -4.799607,0 -9.151215,-4.343441 -13.944755,-8.282006 -3.972017,-3.263574 -8.246563,-6.249892 -13.339646,-6.249892 -2.636751,0 -4.099584,2.94406 -5.455802,6.249892 -1.767823,4.309136 -3.349856,9.249091 -7.067854,9.249091 -2.815904,0 -4.248536,-4.903441 -6.220854,-9.249091 -1.568776,-3.456493 -3.56677,-7.30933 -6.70145,-6.560444 -7.642515,1.825832 -11.4206751,0.627118 -11.3678227,-2.110366 0.092647,-4.798712 4.3434407,-9.151215 8.2820057,-13.944755 3.263574,-3.972017 6.249892,-8.246568 6.249892,-13.339651 0,-2.636746 -2.94406,-4.099579 -6.249892,-5.455797 -4.309136,-1.767823 -9.249091,-3.349856 -9.249091,-7.067854 0,-2.815904 4.903441,-4.248536 9.249091,-6.220854 3.456493,-1.568776 6.560444,-3.478556 6.560444,-6.70145 C 24.31695,14.984879 17.756506,13.869355 17.756506,0 H 0 v 82.243494 z"
     sodipodi:nodetypes="ccccsssssssssssssscccc" /><path
     style="display:inline;fill:none;fill-opacity:1;fill-rule:evenodd;stroke:#212121;stroke-width:1.90476;stroke-linejoin:round;stroke-opacity:1;paint-order:markers fill stroke"
     d="m 100,82.243494 c -15.65275,0 -14.665888,8.282006 -26.427316,8.282006 -4.799607,0 -9.151215,-4.343441 -13.944755,-8.282006 -3.972017,-3.263574 -8.246563,-6.249892 -13.339646,-6.249892 -2.636751,0 -4.099584,2.94406 -5.455802,6.249892 -1.767823,4.309136 -3.349856,9.249091 -7.067854,9.249091 -2.815904,0 -4.248536,-4.903441 -6.220854,-9.249091 -1.568776,-3.456493 -3.56677,-7.30933 -6.70145,-6.560444 -7.642515,1.825832 -11.4206751,0.627118 -11.3678227,-2.110366 0.092647,-4.798712 4.3434407,-9.151215 8.2820057,-13.944755 3.263574,-3.972017 6.249892,-8.246568 6.249892,-13.339651 0,-2.636746 -2.94406,-4.099579 -6.249892,-5.455797 -4.309136,-1.767823 -9.249091,-3.349856 -9.249091,-7.067854 0,-2.815904 4.903441,-4.248536 9.249091,-6.220854 3.456493,-1.568776 6.560444,-3.478556 6.560444,-6.70145 0,-5.857444 -6.560444,-6.972968 -6.560444,-20.842323"
     id="path6" /></svg>
