<?xml version="1.0" encoding="UTF-8" standalone="no"?>
<!-- Created with Inkscape (http://www.inkscape.org/) -->

<svg
   width="100mm"
   height="99.999992mm"
   viewBox="0 0 99.999997 99.999994"
   version="1.1"
   id="svg1"
   sodipodi:docname="8.svg"
   inkscape:version="1.3.2 (091e20e, 2023-11-25, custom)"
   inkscape:export-filename="tile up-left.svg"
   inkscape:export-xdpi="96"
   inkscape:export-ydpi="96"
   xml:space="preserve"
   xmlns:inkscape="http://www.inkscape.org/namespaces/inkscape"
   xmlns:sodipodi="http://sodipodi.sourceforge.net/DTD/sodipodi-0.dtd"
   xmlns="http://www.w3.org/2000/svg"
   xmlns:svg="http://www.w3.org/2000/svg"><sodipodi:namedview
     id="namedview1"
     pagecolor="#ffffff"
     bordercolor="#000000"
     borderopacity="0.25"
     inkscape:showpageshadow="2"
     inkscape:pageopacity="0.0"
     inkscape:pagecheckerboard="0"
     inkscape:deskcolor="#d1d1d1"
     inkscape:document-units="mm"
     inkscape:zoom="0.20222363"
     inkscape:cx="257.14107"
     inkscape:cy="182.96576"
     inkscape:window-width="1280"
     inkscape:window-height="650"
     inkscape:window-x="1074"
     inkscape:window-y="262"
     inkscape:window-maximized="1"
     inkscape:current-layer="svg1" /><defs
     id="defs1" /><path
     id="path1-2"
     style="display:inline;fill:#967969;fill-opacity:1;fill-rule:evenodd;stroke-width:1.90476;stroke-linejoin:round;paint-order:markers fill stroke"
     inkscape:label="path2"
     d="M 0,0 V 17.756506 100 h 17.756506 c 0,-15.65275 -8.2820057,-14.665888 -8.2820057,-26.427316 0,-4.799607 4.3434397,-9.151215 8.2820057,-13.944755 3.263576,-3.972017 6.249892,-8.246563 6.249892,-13.339648 0,-2.636748 -2.944059,-4.099581 -6.249892,-5.455799 -4.309137,-1.767825 -9.2490929,-3.349856 -9.2490929,-7.067855 0,-2.815901 4.9034419,-4.248535 9.2490929,-6.220856 3.456495,-1.568773 7.309332,-3.56677 6.560443,-6.701445 -1.825834,-7.642518 -0.627116,-11.4206776 2.110366,-11.3678257 4.798713,0.092647 9.151215,4.3434397 13.944755,8.2820057 3.972018,3.263576 8.246569,6.249892 13.339652,6.249892 2.636746,0 4.099579,-2.944059 5.455797,-6.249892 1.767823,-4.309137 3.349856,-9.2490929 7.067854,-9.2490929 2.815904,0 4.248536,4.9034419 6.220854,9.2490929 1.568776,3.456495 3.478556,6.560443 6.70145,6.560443 5.857444,0 6.972968,-6.560443 20.842323,-6.560443 V 0 H 17.756506 Z"
     sodipodi:nodetypes="ccccsssssssssssssscccc" /><path
     style="display:inline;fill:none;fill-opacity:1;fill-rule:evenodd;stroke:#212121;stroke-width:1.90476;stroke-linejoin:round;stroke-opacity:1;paint-order:markers fill stroke"
     d="m 17.756506,100 c 0,-15.65275 -8.2820057,-14.665888 -8.2820057,-26.427316 0,-4.799607 4.3434397,-9.151215 8.2820057,-13.944755 3.263576,-3.972017 6.249892,-8.246563 6.249892,-13.339648 0,-2.636748 -2.944059,-4.099581 -6.249892,-5.455799 -4.309137,-1.767825 -9.2490929,-3.349856 -9.2490929,-7.067855 0,-2.815901 4.9034419,-4.248535 9.2490929,-6.220856 3.456495,-1.568773 7.309332,-3.56677 6.560443,-6.701445 -1.825834,-7.642518 -0.627116,-11.4206776 2.110366,-11.3678257 4.798713,0.092647 9.151215,4.3434397 13.944755,8.2820057 3.972018,3.263576 8.246569,6.249892 13.339652,6.249892 2.636746,0 4.099579,-2.944059 5.455797,-6.249892 1.767823,-4.309137 3.349856,-9.2490929 7.067854,-9.2490929 2.815904,0 4.248536,4.9034419 6.220854,9.2490929 1.568776,3.456495 3.478556,6.560443 6.70145,6.560443 5.857444,0 6.972968,-6.560443 20.842323,-6.560443"
     id="path6" /></svg>
