<?xml version="1.0" encoding="UTF-8" standalone="no"?>
<!-- Created with Inkscape (http://www.inkscape.org/) -->

<svg
   width="100.00085"
   height="100.00344"
   viewBox="0 0 100.00085 100.00344"
   id="SVGRoot"
   version="1.1"
   enable-background="new"
   sodipodi:docname="stairs up.svg"
   inkscape:export-filename="..\Main tiles\stairs up-left.svg"
   inkscape:export-xdpi="96"
   inkscape:export-ydpi="96"
   inkscape:version="1.3.2 (091e20e, 2023-11-25, custom)"
   xmlns:inkscape="http://www.inkscape.org/namespaces/inkscape"
   xmlns:sodipodi="http://sodipodi.sourceforge.net/DTD/sodipodi-0.dtd"
   xmlns:xlink="http://www.w3.org/1999/xlink"
   xmlns="http://www.w3.org/2000/svg"
   xmlns:svg="http://www.w3.org/2000/svg">
  <sodipodi:namedview
     id="namedview1"
     pagecolor="#ffffff"
     bordercolor="#000000"
     borderopacity="0.25"
     inkscape:showpageshadow="2"
     inkscape:pageopacity="0.0"
     inkscape:pagecheckerboard="0"
     inkscape:deskcolor="#d1d1d1"
     inkscape:zoom="1.668772"
     inkscape:cx="32.359124"
     inkscape:cy="35.355339"
     inkscape:window-width="1280"
     inkscape:window-height="650"
     inkscape:window-x="1074"
     inkscape:window-y="262"
     inkscape:window-maximized="1"
     inkscape:current-layer="SVGRoot" />
  <defs
     id="defs4787">
    <inkscape:path-effect
       effect="tiling"
       id="path-effect15"
       is_visible="true"
       lpeversion="1"
       unit="px"
       seed="1;1"
       lpesatellites=""
       num_rows="4"
       num_cols="1"
       gapx="0"
       gapy="0"
       offset="0"
       offset_type="false"
       scale="0"
       rotate="0"
       mirrorrowsx="false"
       mirrorrowsy="false"
       mirrorcolsx="false"
       mirrorcolsy="false"
       mirrortrans="false"
       shrink_interp="false"
       split_items="false"
       link_styles="false"
       interpolate_scalex="false"
       interpolate_scaley="true"
       interpolate_rotatex="false"
       interpolate_rotatey="true"
       random_scale="false"
       random_rotate="false"
       random_gap_y="false"
       random_gap_x="false"
       transformorigin="scale(1,0.91663845)" />
    <linearGradient
       id="linearGradient3"
       inkscape:collect="always">
      <stop
         style="stop-color:#808080;stop-opacity:1;"
         offset="0"
         id="stop3" />
      <stop
         style="stop-color:#404040;stop-opacity:1;"
         offset="1"
         id="stop4" />
    </linearGradient>
    <linearGradient
       inkscape:collect="always"
       xlink:href="#linearGradient3"
       id="linearGradient4"
       x1="49.999569"
       y1="-50.00172"
       x2="49.999565"
       y2="-41.668381"
       gradientUnits="userSpaceOnUse" />
    <linearGradient
       inkscape:collect="always"
       xlink:href="#linearGradient3"
       id="linearGradient50"
       gradientUnits="userSpaceOnUse"
       x1="49.999569"
       y1="-50.00172"
       x2="49.999565"
       y2="-41.668381" />
    <linearGradient
       inkscape:collect="always"
       xlink:href="#linearGradient3"
       id="linearGradient52"
       gradientUnits="userSpaceOnUse"
       x1="49.999569"
       y1="-50.00172"
       x2="49.999565"
       y2="-41.668381" />
    <linearGradient
       inkscape:collect="always"
       xlink:href="#linearGradient3"
       id="linearGradient54"
       gradientUnits="userSpaceOnUse"
       x1="49.999569"
       y1="-50.00172"
       x2="49.999565"
       y2="-41.668381" />
    <linearGradient
       inkscape:collect="always"
       xlink:href="#linearGradient3"
       id="linearGradient25"
       gradientUnits="userSpaceOnUse"
       x1="49.999569"
       y1="-50.00172"
       x2="49.999565"
       y2="-41.668381"
       gradientTransform="matrix(1,0,0,1.0003726,8.5921098e-4,141.68735)" />
  </defs>
  <g
     id="g3"
     inkscape:label="stair"
     transform="scale(1,0.91663845)"
     inkscape:path-effect="#path-effect15">
    <path
       style="display:inline;fill:#ffffff;fill-opacity:1;fill-rule:evenodd;stroke:none;stroke-width:9;stroke-linecap:round;stroke-linejoin:round;paint-order:fill markers stroke"
       id="rect3"
       width="100.00085"
       height="16.667522"
       x="-7.1525574e-07"
       y="8.3333368"
       sodipodi:type="rect"
       d="M -7.1525574e-7,8.3333368 H 100.00085 V 25.000859 H -7.1525574e-7 Z m 0,25.0008612 H 100.00085 V 50.00172 H -7.1525574e-7 Z m 0,25.00086 H 100.00085 V 75.002581 H -7.1525574e-7 Z m 0,25.000861 H 100.00085 V 100.00344 H -7.1525574e-7 Z" />
    <path
       style="display:inline;fill:url(#linearGradient4);fill-opacity:1;fill-rule:evenodd;stroke:none;stroke-width:9.7306;stroke-linecap:round;stroke-linejoin:round;paint-order:fill markers stroke"
       id="rect1"
       width="100.00085"
       height="8.3333359"
       x="-0.00085783005"
       y="-50.00172"
       ry="1.1022611e-06"
       sodipodi:type="rect"
       d="M -8.5672779e-4,-50.00172 H 99.999988 l 10e-7,10e-7 v 8.333333 l -10e-7,10e-7 H -8.5672779e-4 l -1.10226e-6,-10e-7 v -8.333333 z m 0,25.00086 H 99.999988 l 10e-7,1e-6 v 8.333334 l -10e-7,1e-6 H -8.5672779e-4 l -1.10226e-6,-1e-6 v -8.333334 z m 0,25.00086094958497 H 99.999988 l 10e-7,1.10226103e-6 V 8.3333357 l -10e-7,1.1e-6 H -8.5672779e-4 l -1.10226e-6,-1.1e-6 V 2.051846e-6 Z m 0,25.00086105041503 H 99.999988 l 10e-7,10e-7 v 8.333333 l -10e-7,2e-6 H -8.5672779e-4 l -1.10226e-6,-2e-6 v -8.333333 z"
       transform="translate(8.5711478e-4,50.001719)" />
  </g>
  <g
     transform="matrix(1,0,0,0.91663845,0,22.91675)"
     id="g50">
    <path
       style="display:inline;fill:#ffffff;fill-opacity:1;fill-rule:evenodd;stroke:none;stroke-width:9;stroke-linecap:round;stroke-linejoin:round;paint-order:fill markers stroke"
       id="path49"
       d="M -7.1525574e-7,8.3333368 H 100.00085 V 25.000859 H -7.1525574e-7 Z" />
    <path
       transform="translate(8.5711478e-4,50.001719)"
       style="display:inline;fill:url(#linearGradient50);fill-opacity:1;fill-rule:evenodd;stroke:none;stroke-width:9.7306;stroke-linecap:round;stroke-linejoin:round;paint-order:fill markers stroke"
       id="path50"
       d="M -8.5672779e-4,-50.00172 H 99.999988 l 10e-7,10e-7 v 8.333333 l -10e-7,10e-7 H -8.5672779e-4 l -1.10226e-6,-10e-7 v -8.333333 z" />
  </g>
  <g
     transform="matrix(1,0,0,0.91663845,0,45.8335)"
     id="g52">
    <path
       style="display:inline;fill:#ffffff;fill-opacity:1;fill-rule:evenodd;stroke:none;stroke-width:9;stroke-linecap:round;stroke-linejoin:round;paint-order:fill markers stroke"
       id="path51"
       d="M -7.1525574e-7,8.3333368 H 100.00085 V 25.000859 H -7.1525574e-7 Z" />
    <path
       transform="translate(8.5711478e-4,50.001719)"
       style="display:inline;fill:url(#linearGradient52);fill-opacity:1;fill-rule:evenodd;stroke:none;stroke-width:9.7306;stroke-linecap:round;stroke-linejoin:round;paint-order:fill markers stroke"
       id="path52"
       d="M -8.5672779e-4,-50.00172 H 99.999988 l 10e-7,10e-7 v 8.333333 l -10e-7,10e-7 H -8.5672779e-4 l -1.10226e-6,-10e-7 v -8.333333 z" />
  </g>
  <g
     transform="matrix(1,0,0,0.91663845,0,68.750251)"
     id="g54">
    <path
       style="display:inline;fill:#ffffff;fill-opacity:1;fill-rule:evenodd;stroke:none;stroke-width:9;stroke-linecap:round;stroke-linejoin:round;paint-order:fill markers stroke"
       id="path53"
       d="M -7.1525574e-7,8.3333368 H 100.00085 V 25.000859 H -7.1525574e-7 Z" />
    <path
       transform="translate(8.5711478e-4,50.001719)"
       style="display:inline;fill:url(#linearGradient54);fill-opacity:1;fill-rule:evenodd;stroke:none;stroke-width:9.7306;stroke-linecap:round;stroke-linejoin:round;paint-order:fill markers stroke"
       id="path54"
       d="M -8.5672779e-4,-50.00172 H 99.999988 l 10e-7,10e-7 v 8.333333 l -10e-7,10e-7 H -8.5672779e-4 l -1.10226e-6,-10e-7 v -8.333333 z" />
  </g>
  <rect
     style="display:inline;fill:url(#linearGradient25);fill-opacity:1;fill-rule:evenodd;stroke:none;stroke-width:9.73242;stroke-linecap:round;stroke-linejoin:round;paint-order:fill markers stroke"
     id="rect1-5"
     width="100.00085"
     height="8.336441"
     x="1.2109756e-06"
     y="91.667"
     ry="1.1026718e-06"
     sodipodi:type="rect"
     d="M -8.5672779e-4,-50.00172 H 99.999988 l 10e-7,10e-7 v 8.333333 l -10e-7,10e-7 H -8.5672779e-4 l -1.10226e-6,-10e-7 v -8.333333 z" />
  <g
     id="g12">
    <path
       style="fill:#ffffff;fill-rule:evenodd;stroke:#000000;stroke-width:3;stroke-linejoin:round;stroke-dasharray:none;paint-order:fill markers stroke"
       d="M 1.2109756e-6,91.667 H 100.00085"
       id="path1" />
    <path
       style="fill:#ffffff;fill-rule:evenodd;stroke:#000000;stroke-width:3;stroke-linejoin:round;stroke-dasharray:none;paint-order:fill markers stroke"
       d="M -7.1525574e-7,76.388908 100.00085,76.388904"
       id="path2" />
    <path
       style="fill:#ffffff;fill-rule:evenodd;stroke:#000000;stroke-width:3;stroke-linejoin:round;stroke-dasharray:none;paint-order:fill markers stroke"
       d="M -7.1525574e-7,68.750249 H 100.00085"
       id="path3" />
    <path
       style="fill:#ffffff;fill-rule:evenodd;stroke:#000000;stroke-width:3;stroke-linejoin:round;stroke-dasharray:none;paint-order:fill markers stroke"
       d="M -7.1525574e-7,53.472157 100.00085,53.472153"
       id="path4" />
    <path
       style="fill:#ffffff;fill-rule:evenodd;stroke:#000000;stroke-width:3;stroke-linejoin:round;stroke-dasharray:none;paint-order:fill markers stroke"
       d="M -7.1527e-7,45.8335 100.00085,45.833499"
       id="path5" />
    <path
       style="fill:#ffffff;fill-rule:evenodd;stroke:#000000;stroke-width:3;stroke-linejoin:round;stroke-dasharray:none;paint-order:fill markers stroke"
       d="M -7.1527e-7,30.555403 100.00085,30.555404"
       id="path6" />
    <path
       style="fill:#ffffff;fill-rule:evenodd;stroke:#000000;stroke-width:3;stroke-linejoin:round;stroke-dasharray:none;paint-order:fill markers stroke"
       d="M -7.1525574e-7,22.916748 100.00085,22.916749"
       id="path7" />
    <path
       style="fill:#ffffff;fill-rule:evenodd;stroke:#000000;stroke-width:3;stroke-linejoin:round;stroke-dasharray:none;paint-order:fill markers stroke"
       d="M -7.1526761e-7,7.6386548 H 100.00085"
       id="path8" />
  </g>
  <g
     id="g11">
    <path
       style="fill:#000000;fill-rule:evenodd;stroke:#000000;stroke-width:3;stroke-linecap:butt;stroke-linejoin:round;paint-order:fill markers stroke"
       d="M 1.5,7.6386556 V 22.916749"
       id="path11" />
    <path
       style="fill:#000000;fill-rule:evenodd;stroke:#000000;stroke-width:3;stroke-linecap:butt;stroke-linejoin:round;paint-order:fill markers stroke"
       d="M 1.5,30.555405 V 45.833499"
       id="path12" />
    <path
       style="fill:#000000;fill-rule:evenodd;stroke:#000000;stroke-width:3;stroke-linecap:butt;stroke-linejoin:round;paint-order:fill markers stroke"
       d="M 1.5,53.472156 V 68.75025"
       id="path13" />
    <path
       style="fill:#000000;fill-rule:evenodd;stroke:#000000;stroke-width:3;stroke-linecap:butt;stroke-linejoin:round;paint-order:fill markers stroke"
       d="M 1.5,76.388907 V 91.667001"
       id="path14" />
  </g>
</svg>
