<?xml version="1.0" encoding="UTF-8" standalone="no"?>
<!-- Created with Inkscape (http://www.inkscape.org/) -->

<svg
   width="100.00001"
   height="200.00002"
   viewBox="0 0 100.00001 200.00002"
   id="SVGRoot"
   version="1.1"
   enable-background="new"
   sodipodi:docname="box.svg"
   inkscape:export-filename="..\..\time\place holder\floor.svg"
   inkscape:export-xdpi="96"
   inkscape:export-ydpi="96"
   inkscape:version="1.3.2 (091e20e, 2023-11-25, custom)"
   xmlns:inkscape="http://www.inkscape.org/namespaces/inkscape"
   xmlns:sodipodi="http://sodipodi.sourceforge.net/DTD/sodipodi-0.dtd"
   xmlns="http://www.w3.org/2000/svg"
   xmlns:svg="http://www.w3.org/2000/svg">
  <sodipodi:namedview
     id="namedview1"
     pagecolor="#ffffff"
     bordercolor="#000000"
     borderopacity="0.25"
     inkscape:showpageshadow="2"
     inkscape:pageopacity="0.0"
     inkscape:pagecheckerboard="0"
     inkscape:deskcolor="#d1d1d1"
     inkscape:zoom="1.4743175"
     inkscape:cx="75.967355"
     inkscape:cy="149.89987"
     inkscape:window-width="1920"
     inkscape:window-height="1010"
     inkscape:window-x="4914"
     inkscape:window-y="762"
     inkscape:window-maximized="1"
     inkscape:current-layer="SVGRoot" />
  <defs
     id="defs4787">
    <inkscape:path-effect
       effect="tiling"
       id="path-effect8"
       is_visible="true"
       lpeversion="1"
       unit="px"
       seed="1;1"
       lpesatellites=""
       num_rows="2"
       num_cols="1"
       gapx="0"
       gapy="0"
       offset="0"
       offset_type="false"
       scale="0"
       rotate="0"
       mirrorrowsx="true"
       mirrorrowsy="false"
       mirrorcolsx="true"
       mirrorcolsy="true"
       mirrortrans="false"
       shrink_interp="true"
       split_items="false"
       link_styles="false"
       interpolate_scalex="false"
       interpolate_scaley="true"
       interpolate_rotatex="false"
       interpolate_rotatey="true"
       random_scale="false"
       random_rotate="false"
       random_gap_y="false"
       random_gap_x="false"
       transformorigin="" />
    <inkscape:path-effect
       effect="tiling"
       id="path-effect17"
       is_visible="true"
       lpeversion="1"
       unit="px"
       seed="1;1"
       lpesatellites=""
       num_rows="2"
       num_cols="1"
       gapx="0"
       gapy="0"
       offset="0"
       offset_type="true"
       scale="0"
       rotate="0"
       mirrorrowsx="true"
       mirrorrowsy="false"
       mirrorcolsx="true"
       mirrorcolsy="true"
       mirrortrans="false"
       shrink_interp="true"
       split_items="true"
       link_styles="false"
       interpolate_scalex="false"
       interpolate_scaley="true"
       interpolate_rotatex="false"
       interpolate_rotatey="true"
       random_scale="false"
       random_rotate="false"
       random_gap_y="false"
       random_gap_x="false"
       transformorigin="" />
    <inkscape:path-effect
       effect="fillet_chamfer"
       id="path-effect4"
       is_visible="true"
       lpeversion="1"
       nodesatellites_param="F,1,0,1,0,0.15,0,1 @ F,1,0,1,0,0.15,0,1 @ F,1,0,1,0,0.15,0,1 @ F,1,0,1,0,0.15,0,1"
       radius="15"
       unit="px"
       method="auto"
       mode="F"
       chamfer_steps="1"
       flexible="true"
       use_knot_distance="true"
       apply_no_radius="true"
       apply_with_radius="true"
       only_selected="false"
       hide_knots="false" />
    <inkscape:path-effect
       effect="fillet_chamfer"
       id="path-effect3"
       nodesatellites_param="F,0,0,1,0,0,0,1 @ F,0,0,1,0,0,0,1 @ F,0,0,1,0,0,0,1 @ F,0,0,1,0,0,0,1"
       is_visible="true"
       lpeversion="1"
       radius="0"
       unit="px"
       method="auto"
       mode="F"
       chamfer_steps="1"
       flexible="false"
       use_knot_distance="true"
       apply_no_radius="true"
       apply_with_radius="true"
       only_selected="false"
       hide_knots="false" />
  </defs>
  <g
     id="g17"
     inkscape:label="Base"
     style="display:inline"
     inkscape:path-effect="#path-effect8">
    <path
       style="display:inline;fill:#000000;fill-opacity:1;fill-rule:evenodd;stroke:none;stroke-width:1;stroke-linecap:round;stroke-linejoin:round;stroke-dasharray:none;stroke-opacity:1;paint-order:fill markers stroke"
       id="rect66"
       width="100"
       height="100"
       x="0"
       y="0"
       transform="translate(-2.3706055e-6)"
       sodipodi:type="rect"
       d="M 0,0 H 100 V 100 H 0 Z M 100,100 V 200 H 0 V 100 Z" />
    <path
       id="rect2"
       style="display:inline;fill:#80461b;fill-rule:evenodd;stroke-width:9.05188;stroke-linecap:round;stroke-linejoin:round;paint-order:fill markers stroke"
       d="m 18.500004,5.0000014 h 63 c 7.455844,0 13.5,6.0441556 13.5,13.4999996 v 63 c 0,7.455844 -6.044156,13.5 -13.5,13.5 h -63 c -7.455844,0 -13.5000002,-6.044156 -13.5000002,-13.5 v -63 C 5.000004,11.044157 11.04416,5.0000013 18.500004,5.0000014 Z M 81.499991,105 c 7.455844,0 13.5,6.04416 13.5,13.5 v 63 c 0,7.45585 -6.044156,13.5 -13.5,13.5 h -63 C 11.044147,195 4.9999913,188.95585 4.9999913,181.5 v -63 c 2e-7,-7.45584 6.0441557,-13.5 13.4999997,-13.5 z"
       inkscape:path-effect="#path-effect4"
       inkscape:original-d="M 5.0000038,5.0000014 H 95.000004 V 95.000001 H 5.0000038 Z" />
    <g
       id="g18"
       inkscape:label="lines">
      <path
         style="fill:#000000;fill-opacity:1;fill-rule:evenodd;stroke:none;stroke-width:1;stroke-linecap:round;stroke-linejoin:round;stroke-dasharray:none;stroke-opacity:1;paint-order:fill markers stroke"
         d="M 18.500004,95.000001 C 15.238767,80.974298 18.544235,65.128007 24.378144,51.827659 29.996244,39.01932 22.378229,25.605768 21.196248,5 h 8.368881 c -5.184635,2.3010844 5.968462,14.72303 6.331075,27.016574 0.263198,8.923107 -11.445369,19.618242 -6.560596,33.267871 2.070702,5.786209 -8.81541,16.271469 -4.91753,29.715556 z M 81.499991,195 h -5.918074 c 3.89788,-13.44409 -6.988232,-23.92935 -4.91753,-29.71556 C 75.54916,151.63482 63.840593,140.93968 64.103791,132.01657 64.466404,119.72303 75.619501,107.30108 70.434866,105 h 8.368881 c -1.181981,20.60577 -8.799996,34.01932 -3.181896,46.82766 5.833909,13.30035 9.139377,29.14664 5.87814,43.17234 z"
         id="path4"
         sodipodi:nodetypes="csccsscc"
         inkscape:label="path4"
         inkscape:original-d="M 18.500004,95.000001 C 15.238767,80.974298 18.544235,65.128007 24.378144,51.827659 29.996244,39.01932 22.378229,25.605768 21.196248,5 h 8.368881 c -5.184635,2.3010844 5.968462,14.72303 6.331075,27.016574 0.263198,8.923107 -11.445369,19.618242 -6.560596,33.267871 2.070702,5.786209 -8.81541,16.271469 -4.91753,29.715556 z" />
      <path
         style="fill:#000000;fill-opacity:1;fill-rule:evenodd;stroke:none;stroke-width:1;stroke-linecap:round;stroke-linejoin:round;stroke-dasharray:none;stroke-opacity:1;paint-order:fill markers stroke"
         d="m 35.900582,95.000001 h 8.823642 C 41.525813,85.612323 44.226676,79.656691 47.140456,75.289073 55.792573,62.319961 39.906391,33.653628 41.714216,5 h -7.121939 c -3.124205,6.721731 6.122876,31.366854 5.934949,41.123036 -0.175845,9.128947 -9.308736,12.34294 -7.121939,16.787428 9.56921,19.448641 4.817621,32.099568 2.495295,32.089537 z M 64.099413,195 c -2.322326,0.01 -7.073915,-12.6409 2.495295,-32.08954 2.186797,-4.44448 -6.946094,-7.65848 -7.121939,-16.78742 C 59.284842,136.36685 68.531923,111.72173 65.407718,105 h -7.121939 c 1.807825,28.65363 -14.078357,57.31996 -5.42624,70.28907 2.91378,4.36762 5.614643,10.32325 2.416232,19.71093 z"
         id="path10"
         sodipodi:nodetypes="ccsccssc"
         inkscape:original-d="m 35.900582,95.000001 h 8.823642 C 41.525813,85.612323 44.226676,79.656691 47.140456,75.289073 55.792573,62.319961 39.906391,33.653628 41.714216,5 h -7.121939 c -3.124205,6.721731 6.122876,31.366854 5.934949,41.123036 -0.175845,9.128947 -9.308736,12.34294 -7.121939,16.787428 9.56921,19.448641 4.817621,32.099568 2.495295,32.089537 z" />
      <path
         style="fill:#000000;fill-opacity:1;fill-rule:evenodd;stroke:none;stroke-width:1;stroke-linecap:round;stroke-linejoin:round;stroke-dasharray:none;stroke-opacity:1;paint-order:fill markers stroke"
         d="m 50.000004,95.000001 c 9.514859,-10.451697 9.379302,-55.003502 0,-89.9999996 L 57.531926,5 c 1.927304,0.6860777 9.881697,16.667227 7.562479,22.507702 -12.761347,32.136845 13.1468,13.930789 -2.155777,56.745187 -1.677722,4.694022 3.550986,10.747112 3.550986,10.747112 z M 49.999991,195 h -16.48961 c 0,0 5.228708,-6.05309 3.550986,-10.74711 C 21.75879,141.43849 47.666937,159.64455 34.90559,127.5077 32.586372,121.66723 40.540765,105.68608 42.468069,105 l 7.531922,0 c -9.379302,34.9965 -9.514859,79.5483 0,90 z"
         id="path13"
         sodipodi:nodetypes="cccsscc"
         inkscape:original-d="m 50.000004,95.000001 c 9.514859,-10.451697 9.379302,-55.003502 0,-89.9999996 L 57.531926,5 c 1.927304,0.6860777 9.881697,16.667227 7.562479,22.507702 -12.761347,32.136845 13.1468,13.930789 -2.155777,56.745187 -1.677722,4.694022 3.550986,10.747112 3.550986,10.747112 z" />
      <path
         style="fill:#000000;fill-opacity:1;fill-rule:evenodd;stroke:none;stroke-width:1;stroke-linecap:round;stroke-linejoin:round;stroke-dasharray:none;stroke-opacity:1;paint-order:fill markers stroke"
         d="m 75.539574,95.000001 h 5.96043 C 69.19584,43.399876 99.094111,45.399629 86.141552,24.078938 83.505565,19.739944 77.494272,8.136258 79.782678,5.0000014 L 72.915094,5 c -6.601956,5.776711 0.237538,28.275115 3.449586,37.02633 2.534189,6.90439 -6.656197,14.208607 -5.25667,21.428998 2.678548,13.819067 6.247841,33.36095 4.431564,31.544673 z M 24.460421,195 c -1.816277,1.81628 1.753016,-17.72561 4.431564,-31.54467 1.399527,-7.22039 -7.790859,-14.52461 -5.25667,-21.429 C 26.847363,133.27511 33.686857,110.77671 27.084901,105 l -6.867584,0 c 2.288406,3.13626 -3.722887,14.73994 -6.358874,19.07894 C 0.90588426,145.39963 30.804155,143.39988 18.499991,195 Z"
         id="path14"
         sodipodi:nodetypes="ccsccssc"
         inkscape:original-d="m 75.539574,95.000001 h 5.96043 C 69.19584,43.399876 99.094111,45.399629 86.141552,24.078938 83.505565,19.739944 77.494272,8.136258 79.782678,5.0000014 L 72.915094,5 c -6.601956,5.776711 0.237538,28.275115 3.449586,37.02633 2.534189,6.90439 -6.656197,14.208607 -5.25667,21.428998 2.678548,13.819067 6.247841,33.36095 4.431564,31.544673 z" />
    </g>
  </g>
  <g
     id="g8"
     inkscape:label="Holes">
    <g
       id="g1"
       inkscape:label="top"
       style="display:inline">
      <path
         style="fill:#000000;fill-rule:evenodd;stroke-width:0.5;stroke-linecap:round;stroke-linejoin:round;paint-order:fill markers stroke"
         id="path2"
         sodipodi:type="arc"
         sodipodi:cx="25.492439"
         sodipodi:cy="36.231117"
         sodipodi:rx="8.9785004"
         sodipodi:ry="8.9785004"
         sodipodi:start="0"
         sodipodi:end="6.2830707"
         sodipodi:open="true"
         sodipodi:arc-type="chord"
         d="m 34.47094,36.231117 a 8.9785004,8.9785004 0 0 1 -8.978243,8.978501 8.9785004,8.9785004 0 0 1 -8.978758,-8.977986 8.9785004,8.9785004 0 0 1 8.977729,-8.979015 8.9785004,8.9785004 0 0 1 8.979272,8.977471 z"
         transform="rotate(15)" />
      <path
         style="fill:#000000;fill-rule:evenodd;stroke-width:0.166926;stroke-linecap:round;stroke-linejoin:round;paint-order:fill markers stroke"
         id="path3"
         sodipodi:type="arc"
         sodipodi:cx="50.862087"
         sodipodi:cy="79.099678"
         sodipodi:rx="2.9975002"
         sodipodi:ry="2.9974999"
         sodipodi:start="0"
         sodipodi:end="6.2830707"
         sodipodi:open="true"
         sodipodi:arc-type="chord"
         d="m 53.859587,79.099678 a 2.9975002,2.9974999 0 0 1 -2.997414,2.9975 2.9975002,2.9974999 0 0 1 -2.997586,-2.997328 2.9975002,2.9974999 0 0 1 2.997243,-2.997672 2.9975002,2.9974999 0 0 1 2.997757,2.997157 z"
         transform="rotate(15)" />
      <path
         style="fill:#000000;fill-rule:evenodd;stroke-width:0.247145;stroke-linecap:round;stroke-linejoin:round;paint-order:fill markers stroke"
         id="path5"
         sodipodi:type="arc"
         sodipodi:cx="76.355118"
         sodipodi:cy="23.210726"
         sodipodi:rx="4.4380002"
         sodipodi:ry="4.4379997"
         sodipodi:start="0"
         sodipodi:end="6.2830707"
         sodipodi:open="true"
         sodipodi:arc-type="chord"
         d="m 80.793118,23.210726 a 4.4380002,4.4379997 0 0 1 -4.437873,4.438 4.4380002,4.4379997 0 0 1 -4.438127,-4.437746 4.4380002,4.4379997 0 0 1 4.437618,-4.438254 4.4380002,4.4379997 0 0 1 4.438382,4.437491 z"
         transform="rotate(15.000001)" />
      <path
         style="fill:#000000;fill-rule:evenodd;stroke-width:0.233975;stroke-linecap:round;stroke-linejoin:round;paint-order:fill markers stroke"
         id="path6"
         sodipodi:type="arc"
         sodipodi:cx="89.02018"
         sodipodi:cy="67.009682"
         sodipodi:rx="4.2014999"
         sodipodi:ry="4.2014999"
         sodipodi:start="0"
         sodipodi:end="6.2830707"
         sodipodi:open="true"
         sodipodi:arc-type="chord"
         d="m 93.22168,67.009682 a 4.2014999,4.2014999 0 0 1 -4.20138,4.2015 4.2014999,4.2014999 0 0 1 -4.20162,-4.20126 4.2014999,4.2014999 0 0 1 4.201139,-4.20174 4.2014999,4.2014999 0 0 1 4.201861,4.201018 z"
         transform="rotate(15.000002)" />
      <path
         style="fill:#000000;fill-rule:evenodd;stroke-width:0.233975;stroke-linecap:round;stroke-linejoin:round;paint-order:fill markers stroke"
         id="path7"
         sodipodi:type="arc"
         sodipodi:cx="89.02018"
         sodipodi:cy="67.009682"
         sodipodi:rx="4.2014999"
         sodipodi:ry="4.2014999"
         sodipodi:start="0"
         sodipodi:end="6.2830707"
         sodipodi:open="true"
         sodipodi:arc-type="chord"
         d="m 93.22168,67.009682 a 4.2014999,4.2014999 0 0 1 -4.20138,4.2015 4.2014999,4.2014999 0 0 1 -4.20162,-4.20126 4.2014999,4.2014999 0 0 1 4.201139,-4.20174 4.2014999,4.2014999 0 0 1 4.201861,4.201018 z"
         transform="rotate(15.000002)" />
      <path
         style="display:inline;fill:#000000;fill-rule:evenodd;stroke-width:0.387285;stroke-linecap:round;stroke-linejoin:round;paint-order:fill markers stroke"
         id="path8"
         sodipodi:type="arc"
         sodipodi:cx="102.91057"
         sodipodi:cy="45.415787"
         sodipodi:rx="6.9545002"
         sodipodi:ry="6.9545002"
         sodipodi:start="0"
         sodipodi:end="6.2830707"
         sodipodi:open="true"
         sodipodi:arc-type="chord"
         d="m 109.86507,45.415787 a 6.9545002,6.9545002 0 0 1 -6.9543,6.9545 6.9545002,6.9545002 0 0 1 -6.954702,-6.954102 6.9545002,6.9545002 0 0 1 6.953902,-6.954898 6.9545002,6.9545002 0 0 1 6.9551,6.953703 z"
         transform="rotate(15.000002)" />
    </g>
    <g
       id="g2"
       inkscape:label="bottom"
       style="display:inline"
       transform="matrix(-1,0,0,1,100.00001,100.00001)">
      <path
         style="fill:#000000;fill-opacity:1;fill-rule:evenodd;stroke:none;stroke-width:1;stroke-linecap:round;stroke-linejoin:round;stroke-dasharray:none;stroke-opacity:1;paint-order:fill markers stroke"
         id="path63"
         transform="scale(-1,1)"
         sodipodi:type="arc"
         sodipodi:cx="-34.900501"
         sodipodi:cy="49.075756"
         sodipodi:rx="2.3315873"
         sodipodi:ry="4.6631746"
         sodipodi:start="0"
         sodipodi:end="6.2830707"
         sodipodi:open="true"
         sodipodi:arc-type="chord"
         d="m -32.568914,49.075756 a 2.3315873,4.6631746 0 0 1 -2.33152,4.663175 2.3315873,4.6631746 0 0 1 -2.331655,-4.662908 2.3315873,4.6631746 0 0 1 2.331387,-4.663442 2.3315873,4.6631746 0 0 1 2.331788,4.662641 z" />
      <path
         style="display:inline;fill:#000000;fill-opacity:1;fill-rule:evenodd;stroke:none;stroke-width:1;stroke-linecap:round;stroke-linejoin:round;stroke-dasharray:none;stroke-opacity:1;paint-order:fill markers stroke"
         id="path65"
         transform="matrix(-1,0,0,1,-2.3706055e-6,2.3706055e-6)"
         sodipodi:type="arc"
         sodipodi:cx="-48.281166"
         sodipodi:cy="86.52697"
         sodipodi:rx="2.5435498"
         sodipodi:ry="5.0870996"
         sodipodi:start="0"
         sodipodi:end="6.2830707"
         sodipodi:open="true"
         sodipodi:arc-type="chord"
         d="m -45.737616,86.52697 a 2.5435498,5.0870996 0 0 1 -2.543477,5.087099 2.5435498,5.0870996 0 0 1 -2.543623,-5.086808 2.5435498,5.0870996 0 0 1 2.543331,-5.087391 2.5435498,5.0870996 0 0 1 2.543769,5.086517 z" />
      <path
         style="display:inline;fill:#000000;fill-opacity:1;fill-rule:evenodd;stroke:none;stroke-width:1;stroke-linecap:round;stroke-linejoin:round;stroke-dasharray:none;stroke-opacity:1;paint-order:fill markers stroke"
         id="path66"
         transform="matrix(-1,0,0,1,-2.3706055e-6,2.3706055e-6)"
         sodipodi:type="arc"
         sodipodi:cx="-14.536735"
         sodipodi:cy="41.76049"
         sodipodi:rx="7.8002191"
         sodipodi:ry="15.600438"
         sodipodi:start="0"
         sodipodi:end="6.2830707"
         sodipodi:open="true"
         sodipodi:arc-type="chord"
         d="m -6.7365155,41.76049 a 7.8002191,15.600438 0 0 1 -7.7999955,15.600439 7.8002191,15.600438 0 0 1 -7.800443,-15.599545 7.8002191,15.600438 0 0 1 7.799549,-15.601332 7.8002191,15.600438 0 0 1 7.8008894,15.59865 z" />
      <path
         style="fill:#000000;fill-opacity:1;fill-rule:evenodd;stroke:none;stroke-width:1;stroke-linecap:round;stroke-linejoin:round;stroke-dasharray:none;stroke-opacity:1;paint-order:fill markers stroke"
         id="path61"
         sodipodi:type="arc"
         sodipodi:cx="12.949642"
         sodipodi:cy="170.74342"
         sodipodi:rx="6.2350125"
         sodipodi:ry="12.470025"
         sodipodi:start="0"
         sodipodi:end="6.2830707"
         sodipodi:open="true"
         sodipodi:arc-type="chord"
         d="m 19.184655,170.74342 a 6.2350125,12.470025 0 0 1 -6.234834,12.47003 6.2350125,12.470025 0 0 1 -6.2351913,-12.46931 6.2350125,12.470025 0 0 1 6.2344763,-12.47074 6.2350125,12.470025 0 0 1 6.235549,12.46859 z"
         transform="matrix(-1,0,0,1,100.00001,-100.00001)" />
      <path
         style="fill:#000000;fill-opacity:1;fill-rule:evenodd;stroke:none;stroke-width:1;stroke-linecap:round;stroke-linejoin:round;stroke-dasharray:none;stroke-opacity:1;paint-order:fill markers stroke"
         id="path62"
         sodipodi:type="arc"
         sodipodi:cx="33.338326"
         sodipodi:cy="142.58189"
         sodipodi:rx="3.9568348"
         sodipodi:ry="7.9136696"
         sodipodi:start="0"
         sodipodi:end="6.2830707"
         sodipodi:open="true"
         sodipodi:arc-type="chord"
         d="m 37.29516,142.58189 a 3.9568348,7.9136696 0 0 1 -3.956721,7.91367 3.9568348,7.9136696 0 0 1 -3.956948,-7.91321 3.9568348,7.9136696 0 0 1 3.956494,-7.91413 3.9568348,7.9136696 0 0 1 3.957175,7.91277 z"
         transform="matrix(-1,0,0,1,100.00001,-100.00001)" />
    </g>
  </g>
  <rect
     style="display:inline;fill:#000000;fill-opacity:0.501779;fill-rule:evenodd;stroke:none;stroke-width:9;stroke-linecap:round;stroke-linejoin:round;stroke-opacity:1;paint-order:fill markers stroke"
     id="rect1"
     width="100.00001"
     height="100.00001"
     x="0"
     y="100.00001"
     inkscape:label="rect1" />
</svg>
