<?xml version="1.0" encoding="UTF-8" standalone="no"?>
<!-- Created with Inkscape (http://www.inkscape.org/) -->

<svg
   width="100.00085"
   height="100.00344"
   viewBox="0 0 100.00085 100.00344"
   id="SVGRoot"
   version="1.1"
   enable-background="new"
   sodipodi:docname="0.svg"
   inkscape:export-filename="stairs right-top.svg"
   inkscape:export-xdpi="96"
   inkscape:export-ydpi="96"
   inkscape:version="1.3.2 (091e20e, 2023-11-25, custom)"
   xml:space="preserve"
   xmlns:inkscape="http://www.inkscape.org/namespaces/inkscape"
   xmlns:sodipodi="http://sodipodi.sourceforge.net/DTD/sodipodi-0.dtd"
   xmlns="http://www.w3.org/2000/svg"
   xmlns:svg="http://www.w3.org/2000/svg"><sodipodi:namedview
     id="namedview1"
     pagecolor="#ffffff"
     bordercolor="#000000"
     borderopacity="0.25"
     inkscape:showpageshadow="2"
     inkscape:pageopacity="0.0"
     inkscape:pagecheckerboard="true"
     inkscape:deskcolor="#d1d1d1"
     inkscape:zoom="5.6568543"
     inkscape:cx="45.608387"
     inkscape:cy="47.729707"
     inkscape:window-width="1080"
     inkscape:window-height="1850"
     inkscape:window-x="-6"
     inkscape:window-y="360"
     inkscape:window-maximized="1"
     inkscape:current-layer="SVGRoot" /><defs
     id="defs4787" /><path
     d="m 74.141048,49.954849 q 0,18.796875 -5.90625,27.609375 -5.859375,8.765625 -18.234375,8.765625 -12.5625,0 -18.375,-8.90625 -5.765625,-8.90625 -5.765625,-27.375 0,-18.609375 5.859375,-27.46875 5.859375,-8.90625 18.28125,-8.90625 12.5625,0 18.328125,9.046875 5.8125,9 5.8125,27.234375 z m -12.328125,21.28125 q 1.640625,-3.796875 2.203125,-8.90625 0.609375,-5.15625 0.609375,-12.375 0,-7.125 -0.609375,-12.375 -0.5625,-5.25 -2.25,-8.90625 -1.640625,-3.609375 -4.5,-5.4375 -2.8125,-1.828125 -7.265625,-1.828125 -4.40625,0 -7.3125,1.828125 -2.859375,1.828125 -4.546875,5.53125 -1.59375,3.46875 -2.203125,9.046875 -0.5625,5.578125 -0.5625,12.234375 0,7.3125 0.515625,12.234375 0.515625,4.921875 2.203125,8.8125 1.546875,3.65625 4.359375,5.578125 2.859375,1.921875 7.546875,1.921875 4.40625,0 7.3125,-1.828125 2.90625,-1.828125 4.5,-5.53125 z"
     id="text1"
     style="font-size:96px;line-height:1;fill:#ffff00;fill-rule:evenodd;stroke-width:9;stroke-linecap:round;stroke-linejoin:round;paint-order:fill markers stroke"
     aria-label="0" /></svg>
