<?xml version="1.0" encoding="UTF-8" standalone="no"?>
<!-- Created with Inkscape (http://www.inkscape.org/) -->

<svg
   width="100.00085"
   height="100.00344"
   viewBox="0 0 100.00085 100.00344"
   id="SVGRoot"
   version="1.1"
   enable-background="new"
   sodipodi:docname="2.svg"
   inkscape:export-filename="..\info\1.svg"
   inkscape:export-xdpi="96"
   inkscape:export-ydpi="96"
   inkscape:version="1.3.2 (091e20e, 2023-11-25, custom)"
   xml:space="preserve"
   xmlns:inkscape="http://www.inkscape.org/namespaces/inkscape"
   xmlns:sodipodi="http://sodipodi.sourceforge.net/DTD/sodipodi-0.dtd"
   xmlns="http://www.w3.org/2000/svg"
   xmlns:svg="http://www.w3.org/2000/svg"><sodipodi:namedview
     id="namedview1"
     pagecolor="#ffffff"
     bordercolor="#000000"
     borderopacity="0.25"
     inkscape:showpageshadow="2"
     inkscape:pageopacity="0.0"
     inkscape:pagecheckerboard="true"
     inkscape:deskcolor="#d1d1d1"
     inkscape:zoom="5.6568543"
     inkscape:cx="45.608387"
     inkscape:cy="47.729707"
     inkscape:window-width="1080"
     inkscape:window-height="1850"
     inkscape:window-x="-6"
     inkscape:window-y="360"
     inkscape:window-maximized="1"
     inkscape:current-layer="SVGRoot" /><defs
     id="defs4787" /><path
     d="m 73.625423,85.626724 h -47.25 v -9.796875 q 4.921875,-4.21875 9.84375,-8.4375 4.96875,-4.21875 9.234375,-8.390625 9,-8.71875 12.328125,-13.828125 3.328125,-5.15625 3.328125,-11.109375 0,-5.4375 -3.609375,-8.484375 -3.5625,-3.09375 -9.984375,-3.09375 -4.265625,0 -9.234375,1.5 -4.96875,1.5 -9.703125,4.59375 h -0.46875 v -9.84375 q 3.328125,-1.640625 8.859375,-3 5.578125,-1.359375 10.78125,-1.359375 10.734375,0 16.828125,5.203125 6.09375,5.15625 6.09375,14.015625 0,3.984375 -1.03125,7.453125 -0.984375,3.421875 -2.953125,6.515625 -1.828125,2.90625 -4.3125,5.71875 -2.4375,2.8125 -5.953125,6.234375 -5.015625,4.921875 -10.359375,9.5625 -5.34375,4.59375 -9.984375,8.53125 h 37.546875 z"
     id="text1"
     style="font-size:96px;line-height:1;fill:#ffff00;fill-rule:evenodd;stroke-width:9;stroke-linecap:round;stroke-linejoin:round;paint-order:fill markers stroke"
     aria-label="2" /></svg>
