<?xml version="1.0" encoding="UTF-8" standalone="no"?>
<!-- Created with Inkscape (http://www.inkscape.org/) -->

<svg
   width="100.00085"
   height="100.00344"
   viewBox="0 0 100.00085 100.00344"
   id="SVGRoot"
   version="1.1"
   enable-background="new"
   sodipodi:docname="3.svg"
   inkscape:export-filename="..\info\2.svg"
   inkscape:export-xdpi="96"
   inkscape:export-ydpi="96"
   inkscape:version="1.3.2 (091e20e, 2023-11-25, custom)"
   xml:space="preserve"
   xmlns:inkscape="http://www.inkscape.org/namespaces/inkscape"
   xmlns:sodipodi="http://sodipodi.sourceforge.net/DTD/sodipodi-0.dtd"
   xmlns="http://www.w3.org/2000/svg"
   xmlns:svg="http://www.w3.org/2000/svg"><sodipodi:namedview
     id="namedview1"
     pagecolor="#ffffff"
     bordercolor="#000000"
     borderopacity="0.25"
     inkscape:showpageshadow="2"
     inkscape:pageopacity="0.0"
     inkscape:pagecheckerboard="true"
     inkscape:deskcolor="#d1d1d1"
     inkscape:zoom="5.6568543"
     inkscape:cx="45.608387"
     inkscape:cy="47.729707"
     inkscape:window-width="1080"
     inkscape:window-height="1850"
     inkscape:window-x="-6"
     inkscape:window-y="360"
     inkscape:window-maximized="1"
     inkscape:current-layer="SVGRoot" /><defs
     id="defs4787" /><path
     d="m 67.836361,51.290787 q 2.25,2.015625 3.703125,5.0625 1.453125,3.046875 1.453125,7.875 0,4.78125 -1.734375,8.765625 -1.734375,3.984375 -4.875,6.9375 -3.515625,3.28125 -8.296875,4.875 -4.734375,1.546875 -10.40625,1.546875 -5.8125,0 -11.4375,-1.40625 -5.625,-1.359375 -9.234375,-3 v -9.796875 h 0.703125 q 3.984375,2.625 9.375,4.359375 5.390625,1.734375 10.40625,1.734375 2.953125,0 6.28125,-0.984375 3.328125,-0.984375 5.390625,-2.90625 2.15625,-2.0625 3.1875,-4.546875 1.078125,-2.484375 1.078125,-6.28125 0,-3.75 -1.21875,-6.1875 -1.171875,-2.484375 -3.28125,-3.890625 -2.109375,-1.453125 -5.109375,-1.96875 -3,-0.5625 -6.46875,-0.5625 h -4.21875 v -7.78125 h 3.28125 q 7.125,0 11.34375,-2.953125 4.265625,-3 4.265625,-8.71875 0,-2.53125 -1.078125,-4.40625 -1.078125,-1.921875 -3,-3.140625 -2.015625,-1.21875 -4.3125,-1.6875 -2.296875,-0.46875 -5.203125,-0.46875 -4.453125,0 -9.46875,1.59375 -5.015625,1.59375 -9.46875,4.5 h -0.46875 v -9.796875 q 3.328125,-1.640625 8.859375,-3 5.578125,-1.40625 10.78125,-1.40625 5.109375,0 9,0.9375 3.890625,0.9375 7.03125,3 3.375,2.25 5.109375,5.4375 1.734375,3.1875 1.734375,7.453125 0,5.8125 -4.125,10.171875 -4.078125,4.3125 -9.65625,5.4375 v 0.65625 q 2.25,0.375 5.15625,1.59375 2.90625,1.171875 4.921875,2.953125 z"
     id="text1"
     style="font-size:96px;line-height:1;fill:#ffff00;fill-rule:evenodd;stroke-width:9;stroke-linecap:round;stroke-linejoin:round;paint-order:fill markers stroke"
     aria-label="3" /></svg>
