<?xml version="1.0" encoding="UTF-8" standalone="no"?>
<!-- Created with Inkscape (http://www.inkscape.org/) -->

<svg
   width="100.00085"
   height="100.00344"
   viewBox="0 0 100.00085 100.00344"
   id="SVGRoot"
   version="1.1"
   enable-background="new"
   sodipodi:docname="5.svg"
   inkscape:export-filename="..\info\4.svg"
   inkscape:export-xdpi="96"
   inkscape:export-ydpi="96"
   inkscape:version="1.3.2 (091e20e, 2023-11-25, custom)"
   xml:space="preserve"
   xmlns:inkscape="http://www.inkscape.org/namespaces/inkscape"
   xmlns:sodipodi="http://sodipodi.sourceforge.net/DTD/sodipodi-0.dtd"
   xmlns="http://www.w3.org/2000/svg"
   xmlns:svg="http://www.w3.org/2000/svg"><sodipodi:namedview
     id="namedview1"
     pagecolor="#ffffff"
     bordercolor="#000000"
     borderopacity="0.25"
     inkscape:showpageshadow="2"
     inkscape:pageopacity="0.0"
     inkscape:pagecheckerboard="true"
     inkscape:deskcolor="#d1d1d1"
     inkscape:zoom="5.6568543"
     inkscape:cx="45.608387"
     inkscape:cy="47.729707"
     inkscape:window-width="1080"
     inkscape:window-height="1850"
     inkscape:window-x="-6"
     inkscape:window-y="360"
     inkscape:window-maximized="1"
     inkscape:current-layer="SVGRoot" /><defs
     id="defs4787" /><path
     d="m 72.734798,62.001724 q 0,4.875 -1.78125,9.328125 -1.78125,4.453125 -4.875,7.5 -3.375,3.28125 -8.0625,5.0625 -4.640625,1.734375 -10.78125,1.734375 -5.71875,0 -11.015625,-1.21875 -5.296875,-1.171875 -8.953125,-2.859375 v -9.890625 h 0.65625 q 3.84375,2.4375 9,4.171875 5.15625,1.6875 10.125,1.6875 3.328125,0 6.421875,-0.9375 3.140625,-0.9375 5.578125,-3.28125 2.0625,-2.015625 3.09375,-4.828125 1.078125,-2.8125 1.078125,-6.515625 0,-3.609375 -1.265625,-6.09375 -1.21875,-2.484375 -3.421875,-3.984375 -2.4375,-1.78125 -5.953125,-2.484375 -3.46875,-0.75 -7.78125,-0.75 -4.125,0 -7.96875,0.5625 -3.796875,0.5625 -6.5625,1.125 V 14.376724 h 42 v 8.203125 H 39.312923 v 18.5625 q 2.015625,-0.1875 4.125,-0.28125 2.109375,-0.09375 3.65625,-0.09375 5.671875,0 9.9375,0.984375 4.265625,0.9375 7.828125,3.375 3.75,2.578125 5.8125,6.65625 2.0625,4.078125 2.0625,10.21875 z"
     id="text1"
     style="font-size:96px;line-height:1;fill:#ffff00;fill-rule:evenodd;stroke-width:9;stroke-linecap:round;stroke-linejoin:round;paint-order:fill markers stroke"
     aria-label="5" /></svg>
