<?xml version="1.0" encoding="UTF-8" standalone="no"?>
<!-- Created with Inkscape (http://www.inkscape.org/) -->

<svg
   width="100.00085"
   height="100.00344"
   viewBox="0 0 100.00085 100.00344"
   id="SVGRoot"
   version="1.1"
   enable-background="new"
   sodipodi:docname="6.svg"
   inkscape:export-filename="..\info\5.svg"
   inkscape:export-xdpi="96"
   inkscape:export-ydpi="96"
   inkscape:version="1.3.2 (091e20e, 2023-11-25, custom)"
   xml:space="preserve"
   xmlns:inkscape="http://www.inkscape.org/namespaces/inkscape"
   xmlns:sodipodi="http://sodipodi.sourceforge.net/DTD/sodipodi-0.dtd"
   xmlns="http://www.w3.org/2000/svg"
   xmlns:svg="http://www.w3.org/2000/svg"><sodipodi:namedview
     id="namedview1"
     pagecolor="#ffffff"
     bordercolor="#000000"
     borderopacity="0.25"
     inkscape:showpageshadow="2"
     inkscape:pageopacity="0.0"
     inkscape:pagecheckerboard="true"
     inkscape:deskcolor="#d1d1d1"
     inkscape:zoom="5.6568543"
     inkscape:cx="45.608387"
     inkscape:cy="47.729707"
     inkscape:window-width="1080"
     inkscape:window-height="1850"
     inkscape:window-x="-6"
     inkscape:window-y="360"
     inkscape:window-maximized="1"
     inkscape:current-layer="SVGRoot" /><defs
     id="defs4787" /><path
     d="m 74.328548,61.532974 q 0,10.640625 -7.03125,17.390625 -6.984375,6.703125 -17.15625,6.703125 -5.15625,0 -9.375,-1.59375 -4.21875,-1.59375 -7.453125,-4.734375 -4.03125,-3.890625 -6.234375,-10.3125 -2.15625,-6.421875 -2.15625,-15.46875 0,-9.28125 1.96875,-16.453125 2.015625,-7.171875 6.375,-12.75 4.125,-5.296875 10.640625,-8.25 6.515625,-3 15.1875,-3 2.765625,0 4.640625,0.234375 1.875,0.234375 3.796875,0.84375 v 8.953125 h -0.46875 q -1.3125,-0.703125 -3.984375,-1.3125 -2.625,-0.65625 -5.390625,-0.65625 -10.078125,0 -16.078125,6.328125 -6,6.28125 -6.984375,17.015625 3.9375,-2.390625 7.734375,-3.609375 3.84375,-1.265625 8.859375,-1.265625 4.453125,0 7.828125,0.84375 3.421875,0.796875 6.984375,3.28125 4.125,2.859375 6.1875,7.21875 2.109375,4.359375 2.109375,10.59375 z m -9.515625,0.375 q 0,-4.359375 -1.3125,-7.21875 -1.265625,-2.859375 -4.21875,-4.96875 -2.15625,-1.5 -4.78125,-1.96875 -2.625,-0.46875 -5.484375,-0.46875 -3.984375,0 -7.40625,0.9375 -3.421875,0.9375 -7.03125,2.90625 -0.09375,1.03125 -0.140625,2.015625 -0.04687,0.9375 -0.04687,2.390625 0,7.40625 1.5,11.71875 1.546875,4.265625 4.21875,6.75 2.15625,2.0625 4.640625,3.046875 2.53125,0.9375 5.484375,0.9375 6.796875,0 10.6875,-4.125 3.890625,-4.171875 3.890625,-11.953125 z"
     id="text1"
     style="font-size:96px;line-height:1;fill:#ffff00;fill-rule:evenodd;stroke-width:9;stroke-linecap:round;stroke-linejoin:round;paint-order:fill markers stroke"
     aria-label="6" /></svg>
