<?xml version="1.0" encoding="UTF-8" standalone="no"?>
<!-- Created with Inkscape (http://www.inkscape.org/) -->

<svg
   width="100.00085"
   height="100.00344"
   viewBox="0 0 100.00085 100.00344"
   id="SVGRoot"
   version="1.1"
   enable-background="new"
   sodipodi:docname="8.svg"
   inkscape:export-filename="..\info\7.svg"
   inkscape:export-xdpi="96"
   inkscape:export-ydpi="96"
   inkscape:version="1.3.2 (091e20e, 2023-11-25, custom)"
   xml:space="preserve"
   xmlns:inkscape="http://www.inkscape.org/namespaces/inkscape"
   xmlns:sodipodi="http://sodipodi.sourceforge.net/DTD/sodipodi-0.dtd"
   xmlns="http://www.w3.org/2000/svg"
   xmlns:svg="http://www.w3.org/2000/svg"><sodipodi:namedview
     id="namedview1"
     pagecolor="#ffffff"
     bordercolor="#000000"
     borderopacity="0.25"
     inkscape:showpageshadow="2"
     inkscape:pageopacity="0.0"
     inkscape:pagecheckerboard="true"
     inkscape:deskcolor="#d1d1d1"
     inkscape:zoom="5.6568543"
     inkscape:cx="45.608387"
     inkscape:cy="47.729707"
     inkscape:window-width="1080"
     inkscape:window-height="1850"
     inkscape:window-x="-6"
     inkscape:window-y="360"
     inkscape:window-maximized="1"
     inkscape:current-layer="SVGRoot" /><defs
     id="defs4787" /><path
     d="m 74.797298,65.447037 q 0,9.046875 -7.078125,15.046875 -7.03125,6 -17.71875,6 -11.34375,0 -18.09375,-5.859375 -6.703125,-5.859375 -6.703125,-15 0,-5.8125 3.375,-10.5 3.375,-4.734375 9.515625,-7.5 v -0.28125 q -5.625,-3 -8.34375,-6.5625 -2.671875,-3.5625 -2.671875,-8.90625 0,-7.875 6.46875,-13.125 6.46875,-5.25 16.453125,-5.25 10.453125,0 16.6875,5.015625 6.234375,5.015625 6.234375,12.75 0,4.734375 -2.953125,9.328125 -2.953125,4.546875 -8.671875,7.125 v 0.28125 q 6.5625,2.8125 10.03125,6.9375 3.46875,4.125 3.46875,10.5 z M 63.687923,31.368912 q 0,-5.015625 -3.890625,-7.96875 -3.84375,-3 -9.84375,-3 -5.90625,0 -9.703125,2.8125 -3.75,2.8125 -3.75,7.59375 0,3.375 1.875,5.859375 1.921875,2.4375 5.765625,4.359375 1.734375,0.84375 4.96875,2.203125 3.28125,1.359375 6.375,2.25 4.640625,-3.09375 6.421875,-6.421875 1.78125,-3.328125 1.78125,-7.6875 z m 1.453125,34.96875 q 0,-4.3125 -1.921875,-6.890625 -1.875,-2.625 -7.40625,-5.25 -2.203125,-1.03125 -4.828125,-1.921875 -2.625,-0.890625 -6.984375,-2.484375 -4.21875,2.296875 -6.796875,6.234375 -2.53125,3.9375 -2.53125,8.90625 0,6.328125 4.359375,10.453125 4.359375,4.125 11.0625,4.125 6.84375,0 10.921875,-3.515625 4.125,-3.515625 4.125,-9.65625 z"
     id="text1"
     style="font-size:96px;line-height:1;fill:#ffff00;fill-rule:evenodd;stroke-width:9;stroke-linecap:round;stroke-linejoin:round;paint-order:fill markers stroke"
     aria-label="8" /></svg>
