<?xml version="1.0" encoding="UTF-8" standalone="no"?>
<!-- Created with Inkscape (http://www.inkscape.org/) -->

<svg
   width="100.00085"
   height="100.00344"
   viewBox="0 0 100.00085 100.00344"
   id="SVGRoot"
   version="1.1"
   enable-background="new"
   sodipodi:docname="stairs right-bottom.svg"
   inkscape:export-filename="..\info\9.svg"
   inkscape:export-xdpi="96"
   inkscape:export-ydpi="96"
   inkscape:version="1.3.2 (091e20e, 2023-11-25, custom)"
   xml:space="preserve"
   xmlns:inkscape="http://www.inkscape.org/namespaces/inkscape"
   xmlns:sodipodi="http://sodipodi.sourceforge.net/DTD/sodipodi-0.dtd"
   xmlns="http://www.w3.org/2000/svg"
   xmlns:svg="http://www.w3.org/2000/svg"><sodipodi:namedview
     id="namedview1"
     pagecolor="#ffffff"
     bordercolor="#000000"
     borderopacity="0.25"
     inkscape:showpageshadow="2"
     inkscape:pageopacity="0.0"
     inkscape:pagecheckerboard="true"
     inkscape:deskcolor="#d1d1d1"
     inkscape:zoom="5.6568543"
     inkscape:cx="45.519999"
     inkscape:cy="47.552931"
     inkscape:window-width="1920"
     inkscape:window-height="1010"
     inkscape:window-x="4914"
     inkscape:window-y="762"
     inkscape:window-maximized="1"
     inkscape:current-layer="SVGRoot" /><defs
     id="defs4787" /><path
     d="m 74.703548,45.829849 q 0,9.140625 -2.109375,16.59375 -2.0625,7.453125 -6.28125,12.703125 -4.265625,5.34375 -10.6875,8.25 -6.421875,2.90625 -15.09375,2.90625 -2.4375,0 -4.59375,-0.28125 -2.15625,-0.234375 -3.84375,-0.796875 v -8.953125 h 0.46875 q 1.359375,0.703125 3.84375,1.359375 2.484375,0.609375 5.53125,0.609375 10.359375,0 16.21875,-6.1875 5.90625,-6.234375 6.84375,-17.15625 -4.359375,2.625 -8.203125,3.75 -3.84375,1.125 -8.390625,1.125 -4.3125,0 -7.828125,-0.84375 -3.46875,-0.84375 -6.984375,-3.28125 -4.125,-2.859375 -6.234375,-7.265625 -2.0625,-4.40625 -2.0625,-10.546875 0,-10.6875 7.03125,-17.390625 7.03125,-6.703125 17.15625,-6.703125 5.0625,0 9.375,1.59375 4.3125,1.546875 7.546875,4.6875 3.984375,3.890625 6.140625,10.03125 2.15625,6.09375 2.15625,15.796875 z m -9.46875,-2.015625 q 0,-7.265625 -1.5,-11.671875 -1.5,-4.40625 -4.125,-6.84375 -2.203125,-2.109375 -4.734375,-3 -2.53125,-0.9375 -5.484375,-0.9375 -6.75,0 -10.6875,4.21875 -3.890625,4.21875 -3.890625,11.859375 0,4.453125 1.265625,7.265625 1.265625,2.8125 4.265625,4.921875 2.109375,1.453125 4.640625,1.96875 2.53125,0.46875 5.625,0.46875 3.65625,0 7.40625,-0.984375 3.75,-0.984375 7.03125,-2.859375 0.04687,-0.984375 0.09375,-1.921875 0.09375,-0.984375 0.09375,-2.484375 z"
     id="text1"
     style="font-size:96px;line-height:1;fill:#ffff00;fill-rule:evenodd;stroke-width:9;stroke-linecap:round;stroke-linejoin:round;paint-order:fill markers stroke"
     aria-label="9" /></svg>
