<?xml version="1.0" encoding="UTF-8" standalone="no"?>
<!-- Created with Inkscape (http://www.inkscape.org/) -->

<svg
   width="100.00085"
   height="100.00344"
   viewBox="0 0 100.00085 100.00344"
   id="SVGRoot"
   version="1.1"
   enable-background="new"
   sodipodi:docname="0.svg"
   inkscape:export-filename="stairs right-top.svg"
   inkscape:export-xdpi="96"
   inkscape:export-ydpi="96"
   inkscape:version="1.3.2 (091e20e, 2023-11-25, custom)"
   xml:space="preserve"
   xmlns:inkscape="http://www.inkscape.org/namespaces/inkscape"
   xmlns:sodipodi="http://sodipodi.sourceforge.net/DTD/sodipodi-0.dtd"
   xmlns="http://www.w3.org/2000/svg"
   xmlns:svg="http://www.w3.org/2000/svg"><sodipodi:namedview
     id="namedview1"
     pagecolor="#ffffff"
     bordercolor="#000000"
     borderopacity="0.25"
     inkscape:showpageshadow="2"
     inkscape:pageopacity="0.0"
     inkscape:pagecheckerboard="true"
     inkscape:deskcolor="#d1d1d1"
     inkscape:zoom="2"
     inkscape:cx="30"
     inkscape:cy="67.999999"
     inkscape:window-width="1280"
     inkscape:window-height="650"
     inkscape:window-x="1074"
     inkscape:window-y="262"
     inkscape:window-maximized="1"
     inkscape:current-layer="SVGRoot" /><defs
     id="defs4787" /><g
     id="g1"
     transform="matrix(0.42372882,0.44194174,-0.98305083,1.0253048,47.039843,-51.26524)"><path
       id="rect1"
       style="fill:#ffff00;fill-opacity:0.5;fill-rule:evenodd;stroke-width:6.3121;stroke-linecap:round;stroke-linejoin:round;paint-order:fill markers stroke"
       d="m 2.4929842,48.925438 17.5053118,7.545393 0.0011,-15.091258 z m 37.5064838,-16.166589 0.0011,32.333656 19.997864,8.619769 0.0011,-49.574148 z m 40.000156,-17.241447 0.0011,66.816546 19.997864,8.619769 0.0011,-84.0570381 z M 119.9991,2.0336331e-4 119.99957,95.81183 139.99964,87.191106 140.00029,6.4716907 124.98753,6.7287425e-4 Z M 160.00036,15.092412 l -6.4e-4,63.477971 20.00008,-8.620724 6.4e-4,-46.236525 z m 40.00015,17.241443 -6.3e-4,28.995081 20.00008,-8.620724 6.2e-4,-11.753635 z" /><path
       id="rect1-9"
       style="fill:#000000;fill-opacity:0.501779;fill-rule:evenodd;stroke-width:6.3121;stroke-linecap:round;stroke-linejoin:round;paint-order:fill markers stroke"
       d="m 19.99939,41.379573 -0.0011,15.091258 20.002283,8.621674 -0.0011,-32.333656 z m 40.000156,-17.241447 -0.0011,49.574148 20.002283,8.621674 -0.0011,-66.816546 z m 40.000155,-17.2414471 -0.0011,84.0570381 15.635899,6.739612 4.36508,-1.881499 -4.7e-4,-95.81162663669 -4.00026,2.9412156e-4 z m 40.000589,-0.4249882 -6.5e-4,80.7194153 20.00008,-8.620723 6.4e-4,-63.477971 z m 40.00015,17.2414433 -6.4e-4,46.236525 20.00008,-8.620723 6.3e-4,-28.995081 z m 40.00014,17.241443 -6.2e-4,11.753635 13.63453,-5.876953 z" /></g></svg>
